<svg xmlns="http://www.w3.org/2000/svg" width="32" height="32" viewBox="0 0 32 32"><g transform="translate(0 -1020.362)"><path fill="#f05542" style="line-height:normal;text-indent:0;text-align:start;text-decoration-line:none;text-decoration-style:solid;text-decoration-color:#000;text-transform:none;block-progression:tb;isolation:auto;mix-blend-mode:normal" d="m 2.4667969,1038.3652 a 0.50005,0.50005 0 0 0 -0.5,0.5 l 0,1.9961 a 0.50005,0.50005 0 0 0 0.5,0.5 l 2.4277343,0 c 0.2596185,0.9731 0.6456626,1.8898 1.1484376,2.7578 l -1.7050782,1.6993 a 0.50005,0.50005 0 0 0 0,0.7089 l 3.4804688,3.4707 a 0.50005,0.50005 0 0 0 0.7050781,0 l 1.7128905,-1.707 c 0.880749,0.5076 1.819975,0.8948 2.802734,1.1563 l 0,2.414 a 0.50005,0.50005 0 0 0 0.5,0.5 l 4.921876,0 a 0.50005,0.50005 0 0 0 0.5,-0.5 l 0,-2.4179 c 0.984088,-0.2588 1.926014,-0.6429 2.808593,-1.1485 l 1.707031,1.7031 a 0.50005,0.50005 0 0 0 0.705079,0 l 3.480468,-3.4707 a 0.50005,0.50005 0 0 0 0,-0.7089 l -1.708984,-1.7032 c 0.504869,-0.866 0.891938,-1.7823 1.154297,-2.7539 l 2.425781,0 a 0.50005,0.50005 0 0 0 0.5,-0.5 l 0,-1.9961 a 0.50005,0.50005 0 0 0 -0.5,-0.5 l -27.0664061,0 z m 0.5,1 26.0664061,0 0,0.9961 -2.248047,0 a 0.50005,0.50005 0 0 0 -0.488281,0.3887 c -0.263477,1.153 -0.718443,2.2117 -1.353516,3.2207 a 0.50005,0.50005 0 0 0 0.07031,0.6211 l 1.585937,1.582 -2.771484,2.7637 -1.583984,-1.5801 a 0.50005,0.50005 0 0 0 -0.617188,-0.07 c -1.0088,0.6275 -2.115304,1.0818 -3.275391,1.3418 a 0.50005,0.50005 0 0 0 -0.390624,0.4863 l 0,2.2461 -3.921876,0 0,-2.2402 a 0.50005,0.50005 0 0 0 -0.388671,-0.4883 c -1.159141,-0.2635 -2.264732,-0.7193 -3.271485,-1.3496 a 0.50005,0.50005 0 0 0 -0.6191404,0.07 l -1.5878906,1.584 -2.7714844,-2.7637 1.5820313,-1.5781 a 0.50005,0.50005 0 0 0 0.070312,-0.6191 c -0.6323043,-1.011 -1.0835927,-2.0706 -1.34375,-3.2246 a 0.50005,0.50005 0 0 0 -0.4882813,-0.3907 l -2.2539062,0 0,-0.9961 z" color="#000" font-family="sans-serif" font-weight="400" overflow="visible"/><path fill="#f05542" fill-rule="evenodd" style="line-height:normal;text-indent:0;text-align:start;text-decoration-line:none;text-decoration-style:solid;text-decoration-color:#000;text-transform:none;block-progression:tb;isolation:auto;mix-blend-mode:normal" d="m 22.982422,1038.8672 -0.998047,0.072 c 0.158618,2.2258 -0.928784,4.3528 -2.826172,5.5273 -1.897456,1.1744 -4.287496,1.1991 -6.208984,0.064 -1.921578,-1.1345 -3.0533937,-3.238 -2.941407,-5.4667 l -0.9980464,-0.051 c -0.1305465,2.598 1.1916044,5.0563 3.4316404,6.3789 2.239932,1.3227 5.03027,1.2928 7.242188,-0.076 2.211837,-1.3692 3.483733,-3.8545 3.298828,-6.4492 z" color="#000" font-family="sans-serif" font-weight="400" overflow="visible"/><path fill="#2b4255" fill-rule="evenodd" style="line-height:normal;text-indent:0;text-align:start;text-decoration-line:none;text-decoration-style:solid;text-decoration-color:#000;text-transform:none;block-progression:tb;isolation:auto;mix-blend-mode:normal" d="m 2.5,1034.3613 a 0.50005,0.50005 0 0 0 -0.5,0.5 l 0,2 a 0.50005,0.50005 0 0 0 0.5,0.5 l 27.175781,0 a 0.50005,0.50005 0 0 0 0.5,-0.5 l 0,-2 a 0.50005,0.50005 0 0 0 -0.5,-0.5 l -3.044922,0 a 0.50005,0.50005 0 1 0 0,1 l 2.544922,0 0,1 -26.175781,0 0,-1 2.5449219,0 a 0.50005,0.50005 0 1 0 0,-1 l -3.0449219,0 z" color="#000" font-family="sans-serif" font-weight="400" overflow="visible"/><path fill="#2b4255" style="line-height:normal;text-indent:0;text-align:start;text-decoration-line:none;text-decoration-style:solid;text-decoration-color:#000;text-transform:none;block-progression:tb;isolation:auto;mix-blend-mode:normal" d="m 19.445312,1022.5801 -0.277343,0.959 c 4.843596,1.4054 8.113642,5.9042 7.953125,10.9394 l 1,0.033 c 0.174922,-5.4871 -3.39882,-10.4004 -8.675782,-11.9316 z" color="#000" font-family="sans-serif" font-weight="400" overflow="visible"/><path fill="#2b4255" style="line-height:normal;text-indent:0;text-align:start;text-decoration-line:none;text-decoration-style:solid;text-decoration-color:#000;text-transform:none;block-progression:tb;isolation:auto;mix-blend-mode:normal" d="m 12.820312,1020.3613 a 0.50005,0.50005 0 0 0 -0.5,0.5 l 0,6.5352 a 0.50005,0.50005 0 1 0 1,0 l 0,-6.0352 5.533204,0 0,6.0352 a 0.50005,0.50005 0 1 0 1,0 l 0,-6.5352 a 0.50005,0.50005 0 0 0 -0.5,-0.5 l -6.533204,0 z" color="#000" font-family="sans-serif" font-weight="400" overflow="visible"/><path fill="#2b4255" fill-rule="evenodd" style="line-height:normal;text-indent:0;text-align:start;text-decoration-line:none;text-decoration-style:solid;text-decoration-color:#000;text-transform:none;block-progression:tb;isolation:auto;mix-blend-mode:normal" d="m 15.587891,1020.3965 0,5.5996 1,0 0,-5.5996 -1,0 z" color="#000" font-family="sans-serif" font-weight="400" overflow="visible"/><path fill="#2b4255" style="line-height:normal;text-indent:0;text-align:start;text-decoration-line:none;text-decoration-style:solid;text-decoration-color:#000;text-transform:none;block-progression:tb;isolation:auto;mix-blend-mode:normal" d="m 12.722656,1022.5762 c -5.2385683,1.516 -8.8071926,6.3688 -8.6874998,11.8164 l 1,-0.021 C 4.9253235,1029.3723 8.1917657,1024.9286 13,1023.5371 l -0.277344,-0.9609 z" color="#000" font-family="sans-serif" font-weight="400" overflow="visible"/><path fill="#2b4255" fill-rule="evenodd" style="line-height:normal;text-indent:0;text-align:start;text-decoration-line:none;text-decoration-style:solid;text-decoration-color:#000;text-transform:none;block-progression:tb;isolation:auto;mix-blend-mode:normal" d="m 9.5078125,1034.3613 a 0.50005,0.50005 0 1 0 0,1 l 13.0664065,0 a 0.50005,0.50005 0 1 0 0,-1 l -13.0664065,0 z" color="#000" font-family="sans-serif" font-weight="400" overflow="visible"/></g></svg>