<svg xmlns="http://www.w3.org/2000/svg" width="32" height="32" viewBox="0 0 32 32"><g transform="translate(0 -1020.362)"><path fill="#2b4255" style="line-height:normal;text-indent:0;text-align:start;text-decoration-line:none;text-decoration-style:solid;text-decoration-color:#000;text-transform:none;block-progression:tb;isolation:auto;mix-blend-mode:normal" d="m 14.5,1037.502 a 0.50005,0.50005 0 0 0 -0.5,0.5 l 0,5 a 0.50005,0.50005 0 1 0 1,0 l 0,-4.5 2,0 0,2.5449 a 0.50005,0.50005 0 1 0 1,0 l 0,-3.0449 a 0.50005,0.50005 0 0 0 -0.5,-0.5 l -3,0 z" color="#000" font-family="sans-serif" font-weight="400" overflow="visible"/><path fill="#f05542" style="line-height:normal;text-indent:0;text-align:start;text-decoration-line:none;text-decoration-style:solid;text-decoration-color:#000;text-transform:none;block-progression:tb;isolation:auto;mix-blend-mode:normal" d="m 11.666016,1024.502 a 0.50005,0.50005 0 0 0 -0.449219,0.2832 l -2.1679689,4.5 a 0.50005,0.50005 0 0 0 -0.035156,0.332 l 2.0000001,8.5 A 0.50005,0.50005 0 0 0 11.5,1038.502 l 9,0 a 0.50005,0.50005 0 0 0 0.486328,-0.3848 l 2,-8.5 a 0.50005,0.50005 0 0 0 -0.03516,-0.332 l -2.167969,-4.5 a 0.50005,0.50005 0 0 0 -0.449219,-0.2832 l -8.667968,0 z m 0.314453,1 8.039062,0 1.953125,4.0566 -1.86914,7.9434 -8.207032,0 -1.86914,-7.9434 1.953125,-4.0566 z" color="#000" font-family="sans-serif" font-weight="400" overflow="visible"/><path fill="#f05542" fill-rule="evenodd" style="line-height:normal;text-indent:0;text-align:start;text-decoration-line:none;text-decoration-style:solid;text-decoration-color:#000;text-transform:none;block-progression:tb;isolation:auto;mix-blend-mode:normal" d="M19.447266 1024.5137l-10.025391 5.789.5.8653 10.025391-5.7891-.5-.8652zM20.787109 1026.0488l-10.8007809 6.2364.4999999.8652 10.800781-6.2344-.5-.8672zM21.667969 1027.8496l-11.414063 6.5899.5.8652 11.414063-6.5879-.5-.8672zM22.021484 1029.9551l-10.767578 6.2168.5.8652 10.767578-6.2148-.5-.8672zM21.408203 1032.6191l-8.621094 4.9766.5.8672 8.621094-4.9785-.5-.8653zM15.414062 1024.5332l-5.5019526 3.1758.4999996.8652 5.501953-3.1758-.5-.8652zM20.957031 1035.1875l-3.970703 2.293.5.8672 3.970703-2.293-.5-.8672z" color="#000" font-family="sans-serif" font-weight="400" overflow="visible"/><path fill="#f05542" fill-rule="evenodd" style="line-height:normal;text-indent:0;text-align:start;text-decoration-line:none;text-decoration-style:solid;text-decoration-color:#000;text-transform:none;block-progression:tb;isolation:auto;mix-blend-mode:normal" d="M9 1020.3613l0 9.1407 1 0 0-9.1407-1 0zM22 1020.3613l0 9.1407 1 0 0-9.1407-1 0z" color="#000" font-family="sans-serif" font-weight="400" overflow="visible"/><path fill="#2b4255" style="line-height:normal;text-indent:0;text-align:start;text-decoration-line:none;text-decoration-style:solid;text-decoration-color:#000;text-transform:none;block-progression:tb;isolation:auto;mix-blend-mode:normal" d="m 17.642578,1040.5605 a 0.50005,0.50005 0 0 0 -0.154297,0.9786 c 2.134874,0.6754 3.562652,2.6759 3.509766,4.914 -0.05286,2.2382 -1.573876,4.1664 -3.738281,4.7403 -2.164397,0.5738 -4.442524,-0.3478 -5.597657,-2.2657 a 0.50005,0.50005 0 1 0 -0.855468,0.5157 c 1.382341,2.2951 4.119012,3.4034 6.708984,2.7168 2.589982,-0.6867 4.419168,-3.0052 4.482422,-5.6836 0.06329,-2.6784 -1.654336,-5.0825 -4.208985,-5.8907 a 0.50005,0.50005 0 0 0 -0.146484,-0.025 z" color="#000" font-family="sans-serif" font-weight="400" overflow="visible"/><path fill="#2b4255" style="line-height:normal;text-indent:0;text-align:start;text-decoration-line:none;text-decoration-style:solid;text-decoration-color:#000;text-transform:none;block-progression:tb;isolation:auto;mix-blend-mode:normal" d="m 14.484375,1042.502 a 0.50005,0.50005 0 0 0 -0.0098,1 c 1.738017,0.105 3.096959,1.5086 3.142579,3.2421 0.04562,1.7335 -1.236769,3.2065 -2.966797,3.4024 -1.730055,0.1959 -3.312895,-0.9547 -3.658203,-2.6543 a 0.50024996,0.50024996 0 1 0 -0.980469,0.1992 c 0.447057,2.2005 2.514862,3.7004 4.75,3.4473 2.235103,-0.2531 3.914536,-2.1774 3.855469,-4.4219 -0.05907,-2.2445 -1.836653,-4.0791 -4.082032,-4.2148 a 0.50005,0.50005 0 0 0 -0.05078,0 z" color="#000" font-family="sans-serif" font-weight="400" overflow="visible"/></g></svg>