<svg xmlns="http://www.w3.org/2000/svg" width="32" height="32" viewBox="0 0 32 32"><g transform="translate(0 -1020.362)"><path fill="#f05542" fill-rule="evenodd" style="line-height:normal;text-indent:0;text-align:start;text-decoration-line:none;text-decoration-style:solid;text-decoration-color:#000;text-transform:none;block-progression:tb;isolation:auto;mix-blend-mode:normal" d="M27.5 1028.3496l0 1 1.5 0 0-1-1.5 0zM27.5 1030.3496l0 1 2.5 0 0-1-2.5 0zM27.5 1032.3496l0 1 1.5 0 0-1-1.5 0zM27.5 1034.3496l0 1 2.5 0 0-1-2.5 0zM27.5 1036.3496l0 1 1.5 0 0-1-1.5 0zM27.5 1038.3496l0 1 2.5 0 0-1-2.5 0zM27.5 1040.3496l0 1 1.5 0 0-1-1.5 0zM27.5 1042.3496l0 1 2.5 0 0-1-2.5 0z" color="#000" font-family="sans-serif" font-weight="400" overflow="visible"/><path fill="#2b4255" style="line-height:normal;text-indent:0;text-align:start;text-decoration-line:none;text-decoration-style:solid;text-decoration-color:#000;text-transform:none;block-progression:tb;isolation:auto;mix-blend-mode:normal" d="m 2.5,1025.3594 c -1.3763514,0 -2.5,1.1236 -2.5,2.5 l 0,19 a 0.50005,0.50005 0 1 0 1,0 l 0,-19 c 0,-0.8397 0.6603514,-1.5 1.5,-1.5 l 2,0 17.900391,0 a 0.50005,0.50005 0 1 0 0,-1 l -17.900391,0 -2,0 z" color="#000" font-family="sans-serif" font-weight="400" overflow="visible"/><path fill="#2b4255" fill-rule="evenodd" style="line-height:normal;text-indent:0;text-align:start;text-decoration-line:none;text-decoration-style:solid;text-decoration-color:#000;text-transform:none;block-progression:tb;isolation:auto;mix-blend-mode:normal" d="m 22,1021.3496 0,20 1.5,0 c 0.839649,0 1.5,0.6604 1.5,1.5 0,0.8397 -0.660351,1.5 -1.5,1.5 l -2,0 -18.7324219,0 -0.2675781,0 c -1.3763514,0 -2.5,1.1237 -2.5,2.5 0,1.3764 1.1236486,2.5 2.5,2.5 l 1.5,0 0,-4 17.5,0 2,0 c 1.376351,0 2.5,-1.1236 2.5,-2.5 l 0,-17 0,-2 c 0,-1.3763 -1.123649,-2.5 -2.5,-2.5 l -1.5,0 z m 1,1 0.5,0 c 0.839649,0 1.5,0.6604 1.5,1.5 l 0,2 0,15.1231 c -0.426735,-0.3389 -0.915243,-0.6231 -1.5,-0.6231 l -0.5,0 0,-18 z m -20.5,23 0.2675781,0 0.2324219,0 0,3 -0.5,0 c -0.8396486,0 -1.5,-0.6603 -1.5,-1.5 0,-0.8396 0.6603514,-1.5 1.5,-1.5 z" color="#000" font-family="sans-serif" font-weight="400" overflow="visible"/><path fill="#2b4255" style="line-height:normal;text-indent:0;text-align:start;text-decoration-line:none;text-decoration-style:solid;text-decoration-color:#000;text-transform:none;block-progression:tb;isolation:auto;mix-blend-mode:normal" d="m 4.5,1028.3496 a 0.50005,0.50005 0 0 0 -0.5,0.5 l 0,13 a 0.50005,0.50005 0 0 0 0.5,0.5 l 15,0 a 0.50005,0.50005 0 0 0 0.5,-0.5 l 0,-13 a 0.50005,0.50005 0 0 0 -0.5,-0.5 l -10.5,0 0,1 10,0 0,12 -14,0 0,-12 2,0 0,-1 -2.5,0 z" color="#000" font-family="sans-serif" font-weight="400" overflow="visible"/><path fill="#2b4255" fill-rule="evenodd" style="line-height:normal;text-indent:0;text-align:start;text-decoration-line:none;text-decoration-style:solid;text-decoration-color:#000;text-transform:none;block-progression:tb;isolation:auto;mix-blend-mode:normal" d="M11 1028.8496l0 3.5 1 0 0-3.5-1 0zm0 5.5488l0 7.4512 1 0 0-7.4512-1 0zM4.5 1036.3496l0 1 4.5 0 0-1-4.5 0zM13 1035.3496l0 1 6.5 0 0-1-6.5 0z" color="#000" font-family="sans-serif" font-weight="400" overflow="visible"/><path fill="#2b4255" style="line-height:normal;text-indent:0;text-align:start;text-decoration-line:none;text-decoration-style:solid;text-decoration-color:#000;text-transform:none;block-progression:tb;isolation:auto;mix-blend-mode:normal" d="m 13.5,1037.3477 a 0.50005,0.50005 0 0 0 -0.5,0.5 l 0,4.0019 a 0.50005,0.50005 0 0 0 0.5,0.5 l 4,0 a 0.50005,0.50005 0 0 0 0.5,-0.5 l 0,-4.0019 a 0.50005,0.50005 0 0 0 -0.5,-0.5 l -4,0 z m 0.5,1 3,0 0,3.0019 -3,0 0,-3.0019 z" color="#000" font-family="sans-serif" font-weight="400" overflow="visible"/><path fill="#2b4255" fill-rule="evenodd" style="line-height:normal;text-indent:0;text-align:start;text-decoration-line:none;text-decoration-style:solid;text-decoration-color:#000;text-transform:none;block-progression:tb;isolation:auto;mix-blend-mode:normal" d="m 15,1031.3496 0,5 1,0 0,-5 -1,0 z" color="#000" font-family="sans-serif" font-weight="400" overflow="visible"/><path fill="#f05542" style="line-height:normal;text-indent:0;text-align:start;text-decoration-line:none;text-decoration-style:solid;text-decoration-color:#000;text-transform:none;block-progression:tb;isolation:auto;mix-blend-mode:normal" d="m 18.253906,1046.3398 -8.4980466,0.031 a 0.50005,0.50005 0 0 0 -0.4980469,0.5019 l 0.011719,2.9766 a 0.50005,0.50005 0 0 0 0.5,0.4981 l 8.4980468,-0 a 0.50005,0.50005 0 0 0 0.5,-0.5019 l -0.01172,-3.0059 a 0.50005,0.50005 0 0 0 -0.501953,-0.4981 z m -0.496094,1.002 0.0078,2.0039 -7.498047,0 -0.0078,-1.9786 7.498046,-0.027 z" color="#000" font-family="sans-serif" font-weight="400" overflow="visible"/><path fill="#f05542" style="line-height:normal;text-indent:0;text-align:start;text-decoration-line:none;text-decoration-style:solid;text-decoration-color:#000;text-transform:none;block-progression:tb;isolation:auto;mix-blend-mode:normal" d="M9.7402344 1046.3711a.50005.50005 0 0 0-.2070313.053l-2.9960937 1.5059a.50005.50005 0 0 0 .00391.8965l3.0058594 1.4843a.50005.50005 0 0 0 .722656-.4511l-.01172-2.9903a.50005.50005 0 0 0-.5175776-.498zm-.4785156 1.3086l.00391 1.3769-1.3847656-.6836 1.3808594-.6933zM18.259766 1046.3398a.50005.50005 0 0 0-.5.5l.0078 2.9922a.50005.50005 0 0 0 .5.4981l1.019531 0c.92401 0 1.716563-.7139 1.712891-1.627l0-.7461c0-.919-.806391-1.6193-1.722656-1.6172l-1.017578 0zm.501953 1l.515625 0a.50005.50005 0 0 0 .002 0c.416733 0 .720703.2939.720703.6172l0 .7481a.50005.50005 0 0 0 0 0c.0013.3302-.2873.6231-.712891.6231l-.521484 0-.0039-1.9903z" color="#000" font-family="sans-serif" font-weight="400" overflow="visible"/><path fill="#f05542" fill-rule="evenodd" style="line-height:normal;text-indent:0;text-align:start;text-decoration-line:none;text-decoration-style:solid;text-decoration-color:#000;text-transform:none;block-progression:tb;isolation:auto;mix-blend-mode:normal" d="m 10.205078,1047.8535 -0.0039,1 8.109375,0.02 0.002,-1 -8.107422,-0.02 z" color="#000" font-family="sans-serif" font-weight="400" overflow="visible"/><path fill="#2b4255" style="line-height:normal;text-indent:0;text-align:start;text-decoration-line:none;text-decoration-style:solid;text-decoration-color:#000;text-transform:none;block-progression:tb;isolation:auto;mix-blend-mode:normal" d="m 27.5,1026.3477 a 0.50005,0.50005 0 0 0 -0.5,0.5 l 0,18 a 0.50005,0.50005 0 0 0 0.5,0.5 l 4,0 a 0.50005,0.50005 0 0 0 0.5,-0.5 l 0,-18 a 0.50005,0.50005 0 0 0 -0.5,-0.5 l -4,0 z m 0.5,1 3,0 0,17 -3,0 0,-17 z" color="#000" font-family="sans-serif" font-weight="400" overflow="visible"/></g></svg>