<svg xmlns="http://www.w3.org/2000/svg" width="32" height="32" viewBox="0 0 32 32"><g transform="translate(0 -1020.362)"><path fill="#2b4255" fill-rule="evenodd" style="line-height:normal;text-indent:0;text-align:start;text-decoration-line:none;text-decoration-style:solid;text-decoration-color:#000;text-transform:none;block-progression:tb;isolation:auto;mix-blend-mode:normal" d="m 2,1048.3613 0,1 28,0 0,-1 -28,0 z" color="#000" font-family="sans-serif" font-weight="400" overflow="visible"/><path fill="#2b4255" style="line-height:normal;text-indent:0;text-align:start;text-decoration-line:none;text-decoration-style:solid;text-decoration-color:#000;text-transform:none;block-progression:tb;isolation:auto;mix-blend-mode:normal" d="m 8.5,1023.3613 a 0.50005,0.50005 0 0 0 -0.5,0.5 l 0,25 a 0.50005,0.50005 0 0 0 0.5,0.5 l 15,0 a 0.50005,0.50005 0 0 0 0.5,-0.5 l 0,-25 a 0.50005,0.50005 0 0 0 -0.5,-0.5 l -15,0 z m 0.5,1 14,0 0,24 -14,0 0,-24 z" color="#000" font-family="sans-serif" font-weight="400" overflow="visible"/><path fill="#f05542" d="m 10.999976,1038.8622 a 0.5,0.5 0 0 1 -0.5,0.5 0.5,0.5 0 0 1 -0.4999998,-0.5 0.5,0.5 0 0 1 0.4999998,-0.5 0.5,0.5 0 0 1 0.5,0.5 z"/><path fill="#f05542" style="line-height:normal;text-indent:0;text-align:start;text-decoration-line:none;text-decoration-style:solid;text-decoration-color:#000;text-transform:none;block-progression:tb;isolation:auto;mix-blend-mode:normal" d="M12.5 1044.3613a.50005.50005 0 0 0-.5.5l0 2a.50005.50005 0 0 0 .5.5l7 0a.50005.50005 0 0 0 .5-.5l0-2a.50005.50005 0 0 0-.5-.5l-7 0zm.5 1l6 0 0 1-6 0 0-1zM12.5 1027.3613a.50005.50005 0 0 0-.5.5l0 12a.50005.50005 0 0 0 .5.5l7 0a.50005.50005 0 0 0 .5-.5l0-12a.50005.50005 0 0 0-.5-.5l-7 0zm.5 1l6 0 0 11-6 0 0-11z" color="#000" font-family="sans-serif" font-weight="400" overflow="visible"/><path fill="#f05542" fill-rule="evenodd" style="line-height:normal;text-indent:0;text-align:start;text-decoration-line:none;text-decoration-style:solid;text-decoration-color:#000;text-transform:none;block-progression:tb;isolation:auto;mix-blend-mode:normal" d="m 15.5,1027.8613 0,12 1,0 0,-12 -1,0 z" color="#000" font-family="sans-serif" font-weight="400" overflow="visible"/><path fill="#f05542" fill-rule="evenodd" style="line-height:normal;text-indent:0;text-align:start;text-decoration-line:none;text-decoration-style:solid;text-decoration-color:#000;text-transform:none;block-progression:tb;isolation:auto;mix-blend-mode:normal" d="m 12.5,1033.3613 0,1 7,0 0,-1 -7,0 z" color="#000" font-family="sans-serif" font-weight="400" overflow="visible"/></g></svg>