<svg xmlns="http://www.w3.org/2000/svg" width="32" height="32" viewBox="0 0 32 32"><g transform="translate(0 -1020.362)"><path fill="#2b4255" fill-rule="evenodd" style="line-height:normal;text-indent:0;text-align:start;text-decoration-line:none;text-decoration-style:solid;text-decoration-color:#000;text-transform:none;block-progression:tb;isolation:auto;mix-blend-mode:normal" d="m 19,1023.3613 0,8.9551 -4,0 0,-4 -2,0 0,-1 -4,0 0,1 -2,0 0,3 -2.9003906,0 0,-6 -4.0996094,0 0,24 1,0 0,-23 2.0996094,0 0,6 4.9003906,0 0,-3 2,0 0,-1 2,0 0,1 2,0 0,4 6,0 0,-8.9551 4,0 0,9.9551 4,0 0,-7 3,0 0,22 1,0 0,-23 -5,0 0,7 -2,0 0,-9.9551 -6,0 z" color="#000" font-family="sans-serif" font-weight="400" overflow="visible"/><path fill="#2b4255" fill-rule="evenodd" style="line-height:normal;text-indent:0;text-align:start;text-decoration-line:none;text-decoration-style:solid;text-decoration-color:#000;text-transform:none;block-progression:tb;isolation:auto;mix-blend-mode:normal" d="m 7.4121094,1034.3164 0,2 -2.4121094,0 0,13.0449 1,0 0,-12.0449 2.4121094,0 0,-2 2.2753906,0 0,2 2.3125,0 0,-1 -1.3125,0 0,-2 -4.2753906,0 z" color="#000" font-family="sans-serif" font-weight="400" overflow="visible"/><path fill="#f05542" fill-rule="evenodd" style="line-height:normal;text-indent:0;text-align:start;text-decoration-line:none;text-decoration-style:solid;text-decoration-color:#000;text-transform:none;block-progression:tb;isolation:auto;mix-blend-mode:normal" d="M 11.492188,1040.5234 A 0.50005,0.50005 0 0 0 11,1041.0312 l 0,7.7833 a 0.50005,0.50005 0 0 0 0.5,0.5 l 11,0 a 0.50005,0.50005 0 0 0 0.5,-0.5 l 0,-7.7833 a 0.50005,0.50005 0 1 0 -1,0 l 0,7.2833 -10,0 0,-7.2833 a 0.50005,0.50005 0 0 0 -0.507812,-0.5078 z" color="#000" font-family="sans-serif" font-weight="400" overflow="visible"/><path fill="#f05542" style="line-height:normal;text-indent:0;text-align:start;text-decoration-line:none;text-decoration-style:solid;text-decoration-color:#000;text-transform:none;block-progression:tb;isolation:auto;mix-blend-mode:normal" d="m 16.972656,1034.3164 a 0.50005,0.50005 0 0 0 -0.3125,0.1309 l -6.498047,6 A 0.50005,0.50005 0 0 0 10.5,1041.3164 l 13,0 a 0.50005,0.50005 0 0 0 0.339844,-0.8691 l -6.5,-6 a 0.50005,0.50005 0 0 0 -0.367188,-0.1309 z M 17,1035.498 l 5.220703,4.8184 -10.441406,0 L 17,1035.498 Z" color="#000" font-family="sans-serif" font-weight="400" overflow="visible"/><path fill="#f05542" style="line-height:normal;text-indent:0;text-align:start;text-decoration-line:none;text-decoration-style:solid;text-decoration-color:#000;text-transform:none;block-progression:tb;isolation:auto;mix-blend-mode:normal" d="M22.492188 1036.3164A.50005.50005 0 0 0 22 1036.8223l0 3.0273a.50005.50005 0 1 0 1 0l0-3.0273a.50005.50005 0 0 0-.507812-.5059zM15.5 1044.3145a.50005.50005 0 0 0-.5.5l0 4a.50005.50005 0 0 0 .5.5l3 0a.50005.50005 0 0 0 .5-.5l0-4a.50005.50005 0 0 0-.5-.5l-3 0zm.5 1l2 0 0 3-2 0 0-3z" color="#000" font-family="sans-serif" font-weight="400" overflow="visible"/><path fill="#2b4255" fill-rule="evenodd" style="line-height:normal;text-indent:0;text-align:start;text-decoration-line:none;text-decoration-style:solid;text-decoration-color:#000;text-transform:none;block-progression:tb;isolation:auto;mix-blend-mode:normal" d="M.05078125 1038.8164l0 1 1.89843755 0 0 2 4 0 0-1-3 0 0-2-2.89843755 0zM24 1036.3164l0 1 3.5 0 0 2 3.5 0 1 0 0-1-1 0-2.5 0 0-2-4.5 0z" color="#000" font-family="sans-serif" font-weight="400" overflow="visible"/></g></svg>