<svg xmlns="http://www.w3.org/2000/svg" width="32" height="32" viewBox="0 0 32 32"><g transform="translate(0 -1020.362)"><path fill="#2b4255" style="line-height:normal;text-indent:0;text-align:start;text-decoration-line:none;text-decoration-style:solid;text-decoration-color:#000;text-transform:none;block-progression:tb;isolation:auto;mix-blend-mode:normal" d="m 5.5,1026.3613 c -1.3763741,0 -2.5,1.1237 -2.5,2.5 l 0,19 a 0.50005,0.50005 0 1 0 1,0 l 0,-19 c 0,-0.8396 0.6603141,-1.5 1.5,-1.5 l 2,0 17.900391,0 a 0.50005,0.50005 0 1 0 0,-1 l -17.900391,0 -2,0 z" color="#000" font-family="sans-serif" font-weight="400" overflow="visible"/><path fill="#2b4255" fill-rule="evenodd" style="line-height:normal;text-indent:0;text-align:start;text-decoration-line:none;text-decoration-style:solid;text-decoration-color:#000;text-transform:none;block-progression:tb;isolation:auto;mix-blend-mode:normal" d="m 25,1022.3613 0,20 1.5,0 c 0.839649,0 1.5,0.6604 1.5,1.5 0,0.8397 -0.660351,1.5 -1.5,1.5 l -2,0 -18.7324219,0 -0.2675781,0 c -1.3763741,0 -2.5,1.1237 -2.5,2.5 0,1.3764 1.1236259,2.5 2.5,2.5 l 1.5,0 0,-4 17.5,0 2,0 c 1.376351,0 2.5,-1.1236 2.5,-2.5 l 0,-17 0,-2 c 0,-1.3763 -1.123649,-2.5 -2.5,-2.5 l -1.5,0 z m 1,1 0.5,0 c 0.839649,0 1.5,0.6604 1.5,1.5 l 0,2 0,15.1231 c -0.426656,-0.3386 -0.915472,-0.6231 -1.5,-0.6231 l -0.5,0 0,-18 z m -20.5,23 0.2675781,0 0.2324219,0 0,3 -0.5,0 c -0.8396859,0 -1.5,-0.6603 -1.5,-1.5 0,-0.8396 0.6603141,-1.5 1.5,-1.5 z" color="#000" font-family="sans-serif" font-weight="400" overflow="visible"/><path fill="#f05542" fill-rule="evenodd" style="line-height:normal;text-indent:0;text-align:start;text-decoration-line:none;text-decoration-style:solid;text-decoration-color:#000;text-transform:none;block-progression:tb;isolation:auto;mix-blend-mode:normal" d="m 12.5,1033.3613 a 0.50005,0.50005 0 0 0 -0.5,0.5 l 0,6 a 0.50005,0.50005 0 0 0 0.5,0.5 l 8,0 a 0.50005,0.50005 0 0 0 0.5,-0.5 l 0,-6 a 0.50005,0.50005 0 0 0 -0.5,-0.5 l -8,0 z m 0.5,1 7,0 0,5 -7,0 0,-5 z" color="#000" font-family="sans-serif" font-weight="400" overflow="visible"/><path fill="#f05542" style="line-height:normal;text-indent:0;text-align:start;text-decoration-line:none;text-decoration-style:solid;text-decoration-color:#000;text-transform:none;block-progression:tb;isolation:auto;mix-blend-mode:normal" d="m 16.492188,1028.3613 a 0.50005,0.50005 0 0 0 -0.345704,0.1465 l -5,5 A 0.50005,0.50005 0 0 0 11.5,1034.3613 l 10,0 a 0.50005,0.50005 0 0 0 0.353516,-0.8535 l -5,-5 a 0.50005,0.50005 0 0 0 -0.361328,-0.1465 z m 0.0078,1.2071 3.792969,3.7929 -7.585938,0 3.792969,-3.7929 z" color="#000" font-family="sans-serif" font-weight="400" overflow="visible"/><path fill="#f05542" style="line-height:normal;text-indent:0;text-align:start;text-decoration-line:none;text-decoration-style:solid;text-decoration-color:#000;text-transform:none;block-progression:tb;isolation:auto;mix-blend-mode:normal" d="M20.492188 1030.3613A.50005.50005 0 0 0 20 1030.8691l0 2.0254a.50005.50005 0 1 0 1 0l0-2.0254a.50005.50005 0 0 0-.507812-.5078zM15.5 1036.3613a.50005.50005 0 0 0-.5.5l0 3a.50005.50005 0 0 0 .5.5l2 0a.50005.50005 0 0 0 .5-.5l0-3a.50005.50005 0 0 0-.5-.5l-2 0zm.5 1l1 0 0 2-1 0 0-2z" color="#000" font-family="sans-serif" font-weight="400" overflow="visible"/><path fill="#2b4255" fill-rule="evenodd" style="line-height:normal;text-indent:0;text-align:start;text-decoration-line:none;text-decoration-style:solid;text-decoration-color:#000;text-transform:none;block-progression:tb;isolation:auto;mix-blend-mode:normal" d="M12 1041.3613l0 1 9 0 0-1-9 0zM9 1028.3622l0 12 1 0 0-12-1 0zM7 1033.3613l0 2 1 0 0-2-1 0zM15.5 1043.3613l0 1 2 0 0-1-2 0z" color="#000" font-family="sans-serif" font-weight="400" overflow="visible"/></g></svg>